<svg width="36" height="34" viewBox="0 0 36 34" fill="none" xmlns="http://www.w3.org/2000/svg">
<rect width="36" height="34" fill="none"/>
<g id="Group 3">
<path id="Ellipse 1" d="M34.7829 16.8175C34.7829 25.523 27.4486 32.6429 18.3226 32.6429C9.1966 32.6429 1.8623 25.523 1.8623 16.8175C1.8623 8.11193 9.1966 0.992064 18.3226 0.992064C27.4486 0.992064 34.7829 8.11193 34.7829 16.8175Z" stroke="white" stroke-width="2"/>
<path id="Ellipse 1 (Stroke)" d="M18.3226 32.1032C27.1715 32.1032 34.2433 25.2045 34.2433 16.8175C34.2433 8.43045 27.1715 1.53175 18.3226 1.53175C9.47378 1.53175 2.40199 8.43045 2.40199 16.8175C2.40199 25.2045 9.47378 32.1032 18.3226 32.1032ZM34.7829 16.8175C34.7829 25.523 27.4486 32.6429 18.3226 32.6429C9.1966 32.6429 1.8623 25.523 1.8623 16.8175C1.8623 8.11193 9.1966 0.992064 18.3226 0.992064C27.4486 0.992064 34.7829 8.11193 34.7829 16.8175Z" stroke="white" stroke-width="2"/>
<path id="Ellipse 3" d="M29.0687 16.8175C29.0687 22.7523 24.2575 27.5635 18.3226 27.5635C12.3878 27.5635 7.5766 22.7523 7.5766 16.8175C7.5766 10.8826 12.3878 6.07143 18.3226 6.07143C24.2575 6.07143 29.0687 10.8826 29.0687 16.8175Z" stroke="white" stroke-width="2"/>
<path id="Ellipse 3 (Stroke)" d="M18.3226 27.0238C23.9594 27.0238 28.529 22.4543 28.529 16.8175C28.529 11.1806 23.9594 6.61111 18.3226 6.61111C12.6858 6.61111 8.11629 11.1806 8.11629 16.8175C8.11629 22.4543 12.6858 27.0238 18.3226 27.0238ZM29.0687 16.8175C29.0687 22.7523 24.2575 27.5635 18.3226 27.5635C12.3878 27.5635 7.5766 22.7523 7.5766 16.8175C7.5766 10.8826 12.3878 6.07143 18.3226 6.07143C24.2575 6.07143 29.0687 10.8826 29.0687 16.8175Z" stroke="white" stroke-width="2"/>
</g>
</svg>
